<svg width="20" height="20" viewBox="0 0 20 20" fill="none" xmlns="http://www.w3.org/2000/svg">
<path d="M20 8.09249V11.9076C20 12.1948 19.7673 12.4278 19.4798 12.4278H12.4278V19.4798C12.4278 19.7674 12.1948 20 11.9076 20H8.09249C7.80546 20 7.57224 19.7673 7.57224 19.4798V12.4278H0.520242C0.232817 12.4278 0 12.1948 0 11.9076V8.09249C0 7.80523 0.232817 7.57224 0.520242 7.57224H7.57224V0.520242C7.57224 0.232702 7.8054 0 8.09249 0H11.9076C12.1948 0 12.4278 0.232702 12.4278 0.520242V7.57224H19.4798C19.7674 7.57224 20 7.80523 20 8.09249Z" fill="#E38414"/>
</svg>
