<svg width="22" height="22" viewBox="0 0 22 22" fill="none" xmlns="http://www.w3.org/2000/svg">
<path d="M13.75 6.875H1.375C0.615612 6.875 0 7.49061 0 8.25V20.625C0 21.3844 0.615612 22 1.375 22H13.75C14.5094 22 15.125 21.3844 15.125 20.625V8.25C15.125 7.49061 14.5094 6.875 13.75 6.875ZM13.75 20.625H1.375V8.25H13.75V20.625Z" fill="#E38414"/>
<path d="M20.625 0H8.24997C7.49058 0 6.87497 0.615613 6.87497 1.375V4.8125H8.24997V1.375H20.625V13.75H17.1875V15.125H20.625C21.3844 15.125 22 14.5094 22 13.75V1.375C22 0.615613 21.3844 0 20.625 0Z" fill="#E38414"/>
</svg>
