<svg width="41" height="42" viewBox="0 0 41 42" fill="none" xmlns="http://www.w3.org/2000/svg">
<path d="M37.1361 3.8663C31.9842 -1.2856 23.6018 -1.28552 18.4499 3.86638C14.9309 7.38541 13.7086 12.5713 15.2323 17.2763L0.351975 32.1567C0.126714 32.3819 3.05176e-05 32.6869 3.05176e-05 33.006V39.8012C3.05176e-05 40.4652 0.537276 41.0024 1.2012 41.0024H7.99649C8.31552 41.0024 8.62054 40.8757 8.84572 40.6505L10.5443 38.9507C10.8035 38.6915 10.9302 38.3279 10.888 37.9631L10.6768 36.1378L13.2058 35.8997C13.7806 35.8457 14.2346 35.3917 14.2886 34.8169L14.5267 32.2879L16.3519 32.5002C16.6909 32.5459 17.0323 32.4321 17.2892 32.2046C17.5449 31.9759 17.6915 31.6498 17.6915 31.3073V29.0708H19.8874C20.2064 29.0708 20.5114 28.9441 20.7366 28.7188L23.817 25.6792C28.5208 27.2042 33.6171 26.0739 37.1361 22.5525C42.288 17.4007 42.288 9.0182 37.1361 3.8663ZM33.738 12.3602C32.3327 13.7655 30.0476 13.7655 28.6423 12.3602C27.2371 10.9549 27.2371 8.66986 28.6423 7.26457C30.0476 5.85928 32.3327 5.85928 33.738 7.26457C35.1433 8.66986 35.1432 10.9549 33.738 12.3602Z" fill="#E38414"/>
</svg>
