<svg width="37" height="49" viewBox="0 0 37 49" fill="none" xmlns="http://www.w3.org/2000/svg">
<path d="M32.375 18.375H30.8333V12.25C30.8333 5.49413 25.3018 0 18.5 0C11.6982 0 6.16666 5.49413 6.16666 12.25V18.375H4.62499C2.0761 18.375 -1.14441e-05 20.435 -1.14441e-05 22.9688V44.4062C-1.14441e-05 46.94 2.0761 49 4.62499 49H32.375C34.9239 49 37 46.94 37 44.4062V22.9688C37 20.435 34.9239 18.375 32.375 18.375ZM10.2778 12.25C10.2778 7.74608 13.9654 4.08333 18.5 4.08333C23.0346 4.08333 26.7222 7.74608 26.7222 12.25V18.375H10.2778V12.25ZM20.5556 34.1408V38.7917C20.5556 39.9187 19.6367 40.8333 18.5 40.8333C17.3633 40.8333 16.4444 39.9187 16.4444 38.7917V34.1408C15.2214 33.4323 14.3889 32.1297 14.3889 30.625C14.3889 28.373 16.2327 26.5417 18.5 26.5417C20.7673 26.5417 22.6111 28.373 22.6111 30.625C22.6111 32.1297 21.7786 33.4323 20.5556 34.1408Z" fill="#E38414"/>
</svg>
