<svg width="24" height="22" viewBox="0 0 24 22" fill="none" xmlns="http://www.w3.org/2000/svg">
<path d="M2.76293 5.9464C1.27663 5.9464 0.0672607 4.73724 0.0672607 3.25068C0.0672607 1.76412 1.27663 0.554962 2.76293 0.554962C4.24923 0.554962 5.45844 1.76412 5.45844 3.25068C5.45844 4.73724 4.24928 5.9464 2.76293 5.9464ZM2.76293 1.93281C2.03617 1.93281 1.44506 2.52413 1.44506 3.25068C1.44506 3.97723 2.03617 4.56855 2.76293 4.56855C3.48948 4.56855 4.08065 3.97723 4.08065 3.25068C4.08065 2.52413 3.48953 1.93281 2.76293 1.93281Z" fill="#E38414"/>
<path d="M22.8011 3.93962H8.68268C8.30217 3.93962 7.99378 3.63104 7.99378 3.25073C7.99378 2.87042 8.30217 2.56183 8.68268 2.56183H22.8011C23.1816 2.56183 23.49 2.87042 23.49 3.25073C23.49 3.63104 23.1816 3.93962 22.8011 3.93962Z" fill="#E38414"/>
<path d="M2.76293 13.9732C1.27663 13.9732 0.0672607 12.764 0.0672607 11.2775C0.0672607 9.79098 1.27663 8.58182 2.76293 8.58182C4.24923 8.58182 5.45844 9.79098 5.45844 11.2775C5.45844 12.764 4.24928 13.9732 2.76293 13.9732ZM2.76293 9.95961C2.03617 9.95961 1.44506 10.5509 1.44506 11.2775C1.44506 12.004 2.03617 12.5954 2.76293 12.5954C3.48948 12.5954 4.08065 12.004 4.08065 11.2775C4.08065 10.5509 3.48953 9.95961 2.76293 9.95961Z" fill="#E38414"/>
<path d="M22.8011 11.9664H8.68268C8.30217 11.9664 7.99378 11.6578 7.99378 11.2775C7.99378 10.8972 8.30217 10.5886 8.68268 10.5886H22.8011C23.1816 10.5886 23.49 10.8972 23.49 11.2775C23.49 11.6578 23.1816 11.9664 22.8011 11.9664Z" fill="#E38414"/>
<path d="M2.76293 22C1.27663 22 0.0672607 20.7908 0.0672607 19.3043C0.0672607 17.8178 1.27663 16.6086 2.76293 16.6086C4.24923 16.6086 5.45844 17.8178 5.45844 19.3043C5.45849 20.7908 4.24928 22 2.76293 22ZM2.76293 17.9864C2.03617 17.9864 1.44506 18.5777 1.44506 19.3043C1.44506 20.0308 2.03617 20.6221 2.76293 20.6221C3.48948 20.6221 4.08065 20.0308 4.08065 19.3043C4.08065 18.5777 3.48953 17.9864 2.76293 17.9864Z" fill="#E38414"/>
<path d="M22.8011 19.9932H8.68268C8.30217 19.9932 7.99378 19.6846 7.99378 19.3043C7.99378 18.924 8.30217 18.6154 8.68268 18.6154H22.8011C23.1816 18.6154 23.49 18.924 23.49 19.3043C23.49 19.6846 23.1816 19.9932 22.8011 19.9932Z" fill="#E38414"/>
</svg>
