<svg width="26" height="26" viewBox="0 0 26 26" fill="none" xmlns="http://www.w3.org/2000/svg">
<path d="M13.7612 0C12.0809 0 10.6637 1.41718 10.6637 3.09749C10.6637 4.7778 12.0809 6.19498 13.7612 6.19498C15.4415 6.19498 16.8079 4.7778 16.8079 3.09749C16.8079 1.41718 15.4415 0 13.7612 0Z" fill="#E38414"/>
<path d="M17.1426 6.19498C16.3056 7.12316 15.1066 7.71833 13.7612 7.71833C12.4158 7.71833 11.1661 7.12316 10.329 6.19498C9.59818 7.00535 9.14036 8.06698 9.14036 9.24169V10.0034C9.14036 10.4244 9.48103 10.765 9.90204 10.765H17.5696C17.9906 10.765 18.3313 10.4244 18.3313 10.0034V9.24169C18.3313 8.06698 17.8734 7.00535 17.1426 6.19498Z" fill="#E38414"/>
<path d="M7.3589 23.3786L3.47734 15.5966C3.10255 14.8451 2.19036 14.5386 1.43798 14.9114L0.423472 15.414C0.0457304 15.6013 -0.107976 16.0604 0.0805644 16.4374L4.65063 25.5776C4.83856 25.9545 5.29572 26.1045 5.67041 25.9197L6.67187 25.4236C7.4272 25.0494 7.73507 24.1329 7.3589 23.3786Z" fill="#E38414"/>
<path d="M25.3743 12.5778C24.7497 12.1208 23.8814 12.2122 23.3635 12.7759L19.1996 17.8943C18.9102 18.199 18.3618 18.3818 18.0724 18.3818H14.5229C14.0963 18.3818 13.7612 18.0467 13.7612 17.6201C13.7612 17.1936 14.0963 16.8585 14.5229 16.8585C15.543 16.8585 16.6724 16.8585 17.5696 16.8585C18.4074 16.8585 19.0929 16.173 19.0929 15.3351C19.0929 14.4973 18.4074 13.8118 17.5696 13.8118C13.9925 13.8118 17.4046 13.8118 13.5784 13.8118C13.1988 13.8118 13.0095 13.571 12.7101 13.309C11.5316 12.2485 9.76753 11.7376 7.98165 12.1515C6.99005 12.3813 6.32134 12.7819 5.64315 13.319L5.62055 13.3007L4.51886 14.2703L8.84844 22.9519H10.1305H17.5696C19.0015 22.9519 20.3726 22.2664 21.2257 21.1239L25.6942 14.7258C26.1969 14.0554 26.0598 13.0806 25.3743 12.5778Z" fill="#E38414"/>
</svg>
