<svg width="24" height="24" viewBox="0 0 24 24" fill="none" xmlns="http://www.w3.org/2000/svg">
<path d="M20.8222 9.05442L20.708 9.01289L20.2622 7.92646L20.3105 7.81483C21.6612 4.6878 21.5681 4.59452 21.3441 4.36782L19.5423 2.57365C19.4687 2.49906 19.3393 2.44659 19.2278 2.44659C19.1265 2.44659 18.8194 2.44659 16.1584 3.67684L16.0517 3.72573L14.9538 3.27444L14.9098 3.16287C13.6584 0 13.5302 0 13.2188 0H10.6744C10.3642 0 10.2229 0 9.06252 3.16837L9.01884 3.28371L7.92668 3.73818L7.82226 3.69386C6.02112 2.91875 4.96947 2.52569 4.69533 2.52569C4.58409 2.52569 4.45428 2.57663 4.3803 2.65103L2.57689 4.45036C2.34812 4.68071 2.25323 4.77717 3.67469 7.83895L3.72694 7.9525L3.28036 9.03773L3.17106 9.08086C0 10.3318 0 10.4537 0 10.7796V13.3247C0 13.6514 0 13.7871 3.17736 14.9494L3.29093 14.9904L3.73758 16.0724L3.68962 16.183C2.3389 19.3115 2.42457 19.3961 2.65452 19.6296L4.45351 21.4262C4.52892 21.5002 4.65944 21.5531 4.77074 21.5531C4.87147 21.5531 5.1778 21.5531 7.84056 20.3234L7.94719 20.2725L9.04577 20.726L9.08848 20.8382C10.3406 24 10.4692 24 10.7808 24H13.3261C13.6456 24 13.7782 24 14.9394 20.8295L14.9827 20.7141L16.0766 20.2627L16.1807 20.306C17.9804 21.0833 19.0315 21.4756 19.3039 21.4756C19.4142 21.4756 19.5451 21.4262 19.6203 21.3502L21.4267 19.5469C21.6539 19.3154 21.7486 19.2207 20.3246 16.1618L20.2716 16.047L20.7174 14.9664L20.8239 14.9238C24 13.6664 24 13.5438 24 13.2176V10.674C23.9999 10.3473 23.9999 10.2125 20.8222 9.05442ZM11.9999 16.1278C9.72593 16.1278 7.876 14.2755 7.876 12.0005C7.876 9.72533 9.726 7.87552 11.9999 7.87552C14.273 7.87552 16.1226 9.72573 16.1226 12.0005C16.1226 14.2751 14.273 16.1278 11.9999 16.1278Z" fill="#E38414"/>
</svg>
