<svg width="34" height="44" viewBox="0 0 34 44" fill="none" xmlns="http://www.w3.org/2000/svg">
<path d="M26.8929 17.8811H6.27267C5.89308 17.8811 5.58533 18.1888 5.58533 18.5684C5.58533 18.948 5.89308 19.2558 6.27267 19.2558H26.8929C27.2725 19.2558 27.5802 18.948 27.5802 18.5684C27.5802 18.1888 27.2725 17.8811 26.8929 17.8811Z" fill="#E38414"/>
<path d="M26.8929 12.3823H6.27267C5.89308 12.3823 5.58533 12.6901 5.58533 13.0697C5.58533 13.4493 5.89308 13.757 6.27267 13.757H26.8929C27.2725 13.757 27.5802 13.4493 27.5802 13.0697C27.5802 12.6901 27.2725 12.3823 26.8929 12.3823Z" fill="#E38414"/>
<path d="M26.8929 23.3798H6.27267C5.89308 23.3798 5.58533 23.6875 5.58533 24.0671C5.58533 24.4467 5.89308 24.7545 6.27267 24.7545H26.8929C27.2725 24.7545 27.5802 24.4467 27.5802 24.0671C27.5802 23.6875 27.2725 23.3798 26.8929 23.3798Z" fill="#E38414"/>
<path d="M26.8929 28.8785H6.27267C5.89308 28.8785 5.58533 29.1863 5.58533 29.5658C5.58533 29.9454 5.89308 30.2532 6.27267 30.2532H26.8929C27.2725 30.2532 27.5802 29.9454 27.5802 29.5658C27.5802 29.1863 27.2725 28.8785 26.8929 28.8785Z" fill="#E38414"/>
<path d="M21.3942 34.3772H6.27267C5.89308 34.3772 5.58533 34.685 5.58533 35.0646C5.58533 35.4442 5.89308 35.7519 6.27267 35.7519H21.3942C21.7737 35.7519 22.0815 35.4442 22.0815 35.0646C22.0815 34.685 21.7738 34.3772 21.3942 34.3772Z" fill="#E38414"/>
<path d="M32.8665 8.55025C32.8105 8.47095 24.5369 0.196575 24.4557 0.13858C24.1861 -0.0537892 25.4177 0.0102194 3.4367 0.0102194C1.5417 0.0102194 0 1.55192 0 3.44692V40.5633C0 42.4583 1.5417 44 3.4367 44H29.5556C31.4506 44 32.9923 42.4583 32.9923 40.5633C32.9923 6.7477 33.0609 8.82648 32.8665 8.55025ZM30.6457 8.2583H24.7443V2.35689L30.6457 8.2583ZM29.5556 42.6253H3.4367C2.29967 42.6253 1.37468 41.7003 1.37468 40.5633V3.44692C1.37468 2.30989 2.29967 1.3849 3.4367 1.3849H23.3696V8.94564C23.3696 9.32523 23.6773 9.63298 24.0569 9.63298H31.6177V40.5633C31.6177 41.7003 30.6927 42.6253 29.5556 42.6253Z" fill="#E38414"/>
</svg>
